<svg viewBox="0 0 1200 630" xmlns="http://www.w3.org/2000/svg">
  <defs>
    <pattern id="dots3" width="26" height="26" patternUnits="userSpaceOnUse">
      <circle cx="2" cy="2" r="1" fill="#E4E0D4"/>
    </pattern>
  </defs>
  <rect width="1200" height="630" fill="#FAF7F0"/>
  <rect width="1200" height="630" fill="url(#dots3)" opacity="0.6"/>
  <rect x="0" y="0" width="1200" height="630" fill="none" stroke="#E4E0D4" stroke-width="1"/>

  <g>
    <rect x="118" y="78" width="36" height="36" rx="7" fill="#0F2740"/>
    <text x="136" y="103" font-family="Georgia, serif" font-weight="700" font-size="18" fill="#C99A3C" text-anchor="middle">B</text>
    <text x="168" y="103" font-family="Georgia, serif" font-weight="700" font-size="20" fill="#0F2740">Bright Futures</text>
  </g>

  <rect x="118" y="140" width="220" height="30" rx="100" fill="rgba(29,158,117,0.1)"/>
  <circle cx="135" cy="155" r="3" fill="#1D9E75"/>
  <text x="150" y="160" font-family="Inter, sans-serif" font-size="12" font-weight="600" fill="#0F6E56" letter-spacing="1">REGISTERED NGO · LUSAKA</text>

  <text x="118" y="240" font-family="Georgia, serif" font-size="44" font-weight="700" fill="#0F2740">Empowering youth</text>
  <text x="118" y="290" font-family="Georgia, serif" font-size="44" font-weight="700" fill="#1D9E75">through education.</text>

  <text x="120" y="335" font-family="Inter, sans-serif" font-size="18" fill="#5A6472">Mentorship, skills training, and educational support</text>
  <text x="120" y="360" font-family="Inter, sans-serif" font-size="18" fill="#5A6472">for underserved youth across Lusaka.</text>

  <rect x="120" y="400" width="220" height="58" rx="4" fill="#0F2740"/>
  <text x="230" y="436" font-family="Inter, sans-serif" font-size="17" font-weight="700" fill="#FFFFFF" text-anchor="middle">Partner With Us →</text>

  <g transform="translate(118, 490)">
    <rect x="0" y="0" width="1" height="44" fill="rgba(201,154,60,0.5)"/>
    <text x="16" y="20" font-family="Georgia, serif" font-size="26" font-weight="700" fill="#C99A3C">1,200+</text>
    <text x="16" y="40" font-family="Inter, sans-serif" font-size="11" fill="#5A6472">Youth supported</text>
  </g>
  <g transform="translate(340, 490)">
    <rect x="0" y="0" width="1" height="44" fill="rgba(201,154,60,0.5)"/>
    <text x="16" y="20" font-family="Georgia, serif" font-size="26" font-weight="700" fill="#C99A3C">340</text>
    <text x="16" y="40" font-family="Inter, sans-serif" font-size="11" fill="#5A6472">Scholarships</text>
  </g>
  <g transform="translate(520, 490)">
    <rect x="0" y="0" width="1" height="44" fill="rgba(201,154,60,0.5)"/>
    <text x="16" y="20" font-family="Georgia, serif" font-size="26" font-weight="700" fill="#C99A3C">94%</text>
    <text x="16" y="40" font-family="Inter, sans-serif" font-size="11" fill="#5A6472">Completion rate</text>
  </g>

  <g transform="translate(770, 90)">
    <rect x="0" y="0" width="320" height="200" rx="8" fill="#FFFFFF" stroke="#E4E0D4"/>
    <rect x="0" y="0" width="320" height="120" rx="8" fill="#D9D2BE"/>
    <rect x="0" y="60" width="320" height="60" fill="#D9D2BE"/>
    <rect x="20" y="138" width="60" height="12" rx="2" fill="#1D9E75" opacity="0.3"/>
    <rect x="20" y="158" width="200" height="14" rx="2" fill="#0F2740" opacity="0.85"/>
    <rect x="20" y="178" width="240" height="10" rx="2" fill="#5A6472" opacity="0.5"/>

    <rect x="0" y="220" width="320" height="200" rx="8" fill="#FFFFFF" stroke="#E4E0D4"/>
    <rect x="0" y="220" width="320" height="120" rx="8" fill="#CBD9D2"/>
    <rect x="20" y="358" width="60" height="12" rx="2" fill="#1D9E75" opacity="0.3"/>
    <rect x="20" y="378" width="220" height="14" rx="2" fill="#0F2740" opacity="0.85"/>
    <rect x="20" y="398" width="200" height="10" rx="2" fill="#5A6472" opacity="0.5"/>
  </g>

  <text x="120" y="600" font-family="Georgia, serif" font-size="14" font-weight="700" fill="#0F2740">brightfutures-zm.org</text>
  <text x="1080" y="600" font-family="Inter, sans-serif" font-size="13" fill="#9A9486" text-anchor="end">Demo built by Cletus Bwalya</text>
</svg>
