<svg viewBox="0 0 1200 630" xmlns="http://www.w3.org/2000/svg">
  <defs>
    <pattern id="dots2" width="28" height="28" patternUnits="userSpaceOnUse">
      <circle cx="2" cy="2" r="1" fill="#1E2530"/>
    </pattern>
  </defs>
  <rect width="1200" height="630" fill="#080B0F"/>
  <rect width="1200" height="630" fill="url(#dots2)" opacity="0.5"/>
  <rect x="0" y="0" width="1200" height="630" fill="none" stroke="#1E2530" stroke-width="1"/>

  <rect x="118" y="80" width="170" height="34" rx="100" fill="rgba(245,166,35,0.1)" stroke="#F5A623" stroke-width="1"/>
  <text x="203" y="102" font-family="JetBrains Mono, monospace" font-size="13" font-weight="500" fill="#F5A623" text-anchor="middle" letter-spacing="1">FEATURED PROJECT</text>

  <text x="118" y="190" font-family="Space Grotesk, sans-serif" font-size="56" font-weight="700" fill="#E8F0F8" letter-spacing="-1.5">Evelyn Hone</text>
  <text x="118" y="252" font-family="Space Grotesk, sans-serif" font-size="56" font-weight="700" fill="#F5A623" letter-spacing="-1.5">Market</text>

  <text x="120" y="310" font-family="Inter, sans-serif" font-size="19" fill="#7A8A9A">A campus marketplace for Evelyn Hone College.</text>
  <text x="120" y="338" font-family="Inter, sans-serif" font-size="19" fill="#7A8A9A">List, browse, and connect via WhatsApp.</text>

  <g font-family="JetBrains Mono, monospace" font-size="12" fill="#7A8A9A">
    <rect x="120" y="375" width="90" height="30" rx="3" fill="#141920" stroke="#2A3444"/>
    <text x="165" y="394" text-anchor="middle" fill="#C8D4E0">Flask</text>
    <rect x="220" y="375" width="90" height="30" rx="3" fill="#141920" stroke="#2A3444"/>
    <text x="265" y="394" text-anchor="middle" fill="#C8D4E0">React</text>
    <rect x="320" y="375" width="120" height="30" rx="3" fill="#141920" stroke="#2A3444"/>
    <text x="380" y="394" text-anchor="middle" fill="#C8D4E0">PostgreSQL</text>
    <rect x="450" y="375" width="90" height="30" rx="3" fill="#141920" stroke="#2A3444"/>
    <text x="495" y="394" text-anchor="middle" fill="#C8D4E0">Vercel</text>
  </g>

  <rect x="120" y="440" width="240" height="60" rx="4" fill="#F5A623"/>
  <text x="240" y="478" font-family="Space Grotesk, sans-serif" font-size="18" font-weight="700" fill="#080B0F" text-anchor="middle">View Live Site →</text>

  <circle cx="148" cy="540" r="5" fill="#00D68F"/>
  <text x="165" y="545" font-family="JetBrains Mono, monospace" font-size="14" fill="#00D68F">Live</text>
  <text x="220" y="545" font-family="JetBrains Mono, monospace" font-size="14" fill="#556070">evelyn-hone-market.vercel.app</text>

  <g transform="translate(760, 80)">
    <rect x="0" y="0" width="350" height="470" rx="8" fill="#141920" stroke="#2A3444" stroke-width="1"/>
    <rect x="0" y="0" width="350" height="36" rx="8" fill="#0F1318"/>
    <circle cx="20" cy="18" r="5" fill="#F5A623"/>
    <circle cx="40" cy="18" r="5" fill="#2A3444"/>
    <circle cx="60" cy="18" r="5" fill="#2A3444"/>

    <rect x="22" y="60" width="140" height="14" rx="3" fill="#2A3444"/>
    <rect x="22" y="84" width="90" height="10" rx="3" fill="#1E2530"/>

    <g transform="translate(22, 120)">
      <rect x="0" y="0" width="148" height="150" rx="6" fill="#0F1318" stroke="#1E2530"/>
      <rect x="10" y="10" width="128" height="80" rx="4" fill="#1E2530"/>
      <rect x="10" y="100" width="100" height="10" rx="2" fill="#2A3444"/>
      <rect x="10" y="118" width="70" height="8" rx="2" fill="#1E2530"/>
      <rect x="10" y="135" width="50" height="14" rx="3" fill="rgba(245,166,35,0.15)"/>
      <text x="35" y="146" font-family="JetBrains Mono, monospace" font-size="10" fill="#F5A623" text-anchor="middle">K250</text>
    </g>
    <g transform="translate(180, 120)">
      <rect x="0" y="0" width="148" height="150" rx="6" fill="#0F1318" stroke="#1E2530"/>
      <rect x="10" y="10" width="128" height="80" rx="4" fill="#1E2530"/>
      <rect x="10" y="100" width="100" height="10" rx="2" fill="#2A3444"/>
      <rect x="10" y="118" width="70" height="8" rx="2" fill="#1E2530"/>
      <rect x="10" y="135" width="50" height="14" rx="3" fill="rgba(245,166,35,0.15)"/>
      <text x="35" y="146" font-family="JetBrains Mono, monospace" font-size="10" fill="#F5A623" text-anchor="middle">K180</text>
    </g>
    <g transform="translate(22, 285)">
      <rect x="0" y="0" width="148" height="150" rx="6" fill="#0F1318" stroke="#1E2530"/>
      <rect x="10" y="10" width="128" height="80" rx="4" fill="#1E2530"/>
      <rect x="10" y="100" width="100" height="10" rx="2" fill="#2A3444"/>
      <rect x="10" y="118" width="70" height="8" rx="2" fill="#1E2530"/>
      <rect x="10" y="135" width="50" height="14" rx="3" fill="rgba(245,166,35,0.15)"/>
      <text x="35" y="146" font-family="JetBrains Mono, monospace" font-size="10" fill="#F5A623" text-anchor="middle">K320</text>
    </g>
    <g transform="translate(180, 285)">
      <rect x="0" y="0" width="148" height="150" rx="6" fill="#0F1318" stroke="#1E2530"/>
      <rect x="10" y="10" width="128" height="80" rx="4" fill="#1E2530"/>
      <rect x="10" y="100" width="100" height="10" rx="2" fill="#2A3444"/>
      <rect x="10" y="118" width="70" height="8" rx="2" fill="#1E2530"/>
      <rect x="10" y="135" width="50" height="14" rx="3" fill="rgba(245,166,35,0.15)"/>
      <text x="35" y="146" font-family="JetBrains Mono, monospace" font-size="10" fill="#F5A623" text-anchor="middle">K95</text>
    </g>
  </g>

  <text x="120" y="600" font-family="JetBrains Mono, monospace" font-size="15" font-weight="700" fill="#E8F0F8">~/cletus-bwalya</text>
  <text x="1080" y="600" font-family="JetBrains Mono, monospace" font-size="13" fill="#556070" text-anchor="end">Live student marketplace</text>
</svg>
